<?xml version="1.0" encoding="UTF-8" standalone="no"?>
<svg
   xmlns:dc="http://purl.org/dc/elements/1.1/"
   xmlns:cc="http://creativecommons.org/ns#"
   xmlns:rdf="http://www.w3.org/1999/02/22-rdf-syntax-ns#"
   xmlns:svg="http://www.w3.org/2000/svg"
   xmlns="http://www.w3.org/2000/svg"
   xmlns:sodipodi="http://sodipodi.sourceforge.net/DTD/sodipodi-0.dtd"
   xmlns:inkscape="http://www.inkscape.org/namespaces/inkscape"
   width="24px"
   height="38px"
   viewBox="0 0 24 38"
   version="1.1"
   id="svg10"
   sodipodi:docname="menu_medalhas_icon.svg"
   inkscape:version="0.92.1 r15371">
  <metadata
     id="metadata14">
    <rdf:RDF>
      <cc:Work
         rdf:about="">
        <dc:format>image/svg+xml</dc:format>
        <dc:type
           rdf:resource="http://purl.org/dc/dcmitype/StillImage" />
      </cc:Work>
    </rdf:RDF>
  </metadata>
  <sodipodi:namedview
     pagecolor="#ffffff"
     bordercolor="#666666"
     borderopacity="1"
     objecttolerance="10"
     gridtolerance="10"
     guidetolerance="10"
     inkscape:pageopacity="0"
     inkscape:pageshadow="2"
     inkscape:window-width="1855"
     inkscape:window-height="1056"
     id="namedview12"
     showgrid="false"
     inkscape:zoom="6.2105263"
     inkscape:cx="12"
     inkscape:cy="19"
     inkscape:window-x="65"
     inkscape:window-y="24"
     inkscape:window-maximized="1"
     inkscape:current-layer="svg10" />
  <!-- Generator: Sketch 48.2 (47327) - http://www.bohemiancoding.com/sketch -->
  <title
     id="title2">Combined Shape</title>
  <desc
     id="desc4">Created with Sketch.</desc>
  <defs
     id="defs6" />
  <g
     id="Artboard"
     stroke="none"
     stroke-width="1"
     fill="none"
     fill-rule="evenodd"
     style="fill:#fbeb2d;fill-opacity:1">
    <path
       d="M12.2399848,26.3285236 L12.5718515,25.4266144 C15.1639288,25.305006 17.5409241,24.361013 19.4478022,22.8496704 L24,35.221524 L18.6260333,32.151098 L16.5051271,37.92 L12.2399848,26.3285236 L7.97478265,37.92 L5.85365097,32.151098 L0.48,35.221524 L4.92711429,23.1350656 C6.9104789,24.5844686 9.35532737,25.44 12,25.44 Z M24,12 C24,18.6274286 18.6274286,24 12,24 C5.37257143,24 0,18.6274286 0,12 C0,5.37257143 5.37257143,0 12,0 C18.6274286,0 24,5.37257143 24,12 Z M7.83645734,18.2291943 L11.9925216,16.1035071 L16.1427585,18.24 L15.3556781,13.7254976 L18.72,10.5334597 L14.0775465,9.86881517 L12.0065072,5.76 L9.92439595,9.86350711 L5.28,10.516019 L8.63577517,13.7167773 L7.83645734,18.2291943 Z"
       id="Combined-Shape"
       fill="#FFFFFF"
       style="fill:#fbeb2d;fill-opacity:1" />
  </g>
</svg>
