<?xml version="1.0" encoding="UTF-8" standalone="no"?>
<svg width="24px" height="24px" viewBox="0 0 24 24" version="1.1" xmlns="http://www.w3.org/2000/svg" xmlns:xlink="http://www.w3.org/1999/xlink">
    <!-- Generator: Sketch 47 (45396) - http://www.bohemiancoding.com/sketch -->
    <title>Artboard</title>
    <desc>Created with Sketch.</desc>
    <defs></defs>
    <g id="Page-1" stroke="none" stroke-width="1" fill="none" fill-rule="evenodd">
        <g id="Artboard" fill-rule="nonzero" fill="#FFFFFF">
            <path d="M12.9803485,24 C12.947679,23.9663429 12.9150096,23.9326857 12.8830069,23.8990286 C12.974348,23.7242703 13.0810236,23.5546901 13.1550299,23.372812 C13.491725,22.5410922 13.8930923,21.7255537 14.1284455,20.8672964 C14.3524644,20.0504634 14.1937843,19.4659941 13.0830238,19.7061249 C13.0303527,19.7177755 12.9750147,19.7184227 12.9210101,19.7203645 C10.1174399,19.8129216 7.54255569,19.1294227 5.23102706,17.5701907 C3.62489136,16.4866895 2.35078371,15.113219 1.61605496,13.3423354 C0.189267745,9.90348125 1.33669803,6.19213369 4.06892887,3.79665108 C8.08326805,0.276890348 14.2924593,0.0509991207 18.56082,3.2807906 C21.0123604,5.13581712 22.3158039,7.57854919 22.226463,10.6432912 C22.1751253,12.3960518 21.7030855,14.0536662 20.917019,15.625196 C19.6795812,18.0996435 17.8800958,20.1469041 15.7339145,21.9139042 C14.8465061,22.6440054 13.8997595,23.3067923 12.9803485,24 Z M12,5 L10.4545748,8.29197122 L7,8.81947986 L9.49973057,11.3822313 L8.90968854,15 L12,13.2916879 L15.0897726,15 L14.4997306,11.3822313 L17,8.81947986 L13.5448863,8.29197122 L12,5 Z" id="Combined-Shape"></path>
        </g>
    </g>
</svg>