<?xml version="1.0" encoding="UTF-8" standalone="no"?>
<svg width="45px" height="46px" viewBox="0 0 45 46" version="1.1" xmlns="http://www.w3.org/2000/svg" xmlns:xlink="http://www.w3.org/1999/xlink">
    <!-- Generator: Sketch 47 (45396) - http://www.bohemiancoding.com/sketch -->
    <title>google_icon</title>
    <desc>Created with Sketch.</desc>
    <defs></defs>
    <g id="Page-1" stroke="none" stroke-width="1" fill="none" fill-rule="evenodd">
        <g id="paper-radio-group" transform="translate(0.000000, -63.000000)" fill-rule="nonzero">
            <g id="001-google-plus" transform="translate(0.000000, 63.000000)">
                <ellipse id="XMLID_30_" fill="#DC4E41" cx="22.3399115" cy="23.0391404" rx="22.3399115" ry="22.6360351"></ellipse>
                <g id="Group" transform="translate(7.566372, 14.526316)">
                    <path d="M0.211460177,9.52603509 C0.132212389,13.4207018 2.77964602,17.1374211 6.42146018,18.3495614 C9.85181416,19.5173158 14.069469,18.6437193 16.3521239,15.6670351 C18.0187168,13.5812982 18.3974336,10.8007193 18.2170354,8.20292982 C15.279292,8.17629825 12.3415487,8.18517544 9.40818584,8.18961404 C9.40340708,9.25003509 9.40818584,10.3064211 9.41256637,11.3668421 C11.1715487,11.4160702 12.9309292,11.3934737 14.6899115,11.429386 C14.245885,12.971193 13.2343805,14.4060702 11.6992035,14.9629123 C8.73517699,16.2864211 4.95318584,14.557386 4.02053097,11.4067895 C2.89473451,8.38975439 4.73774336,4.74889474 7.78061947,3.87126316 C9.66743363,3.19861404 11.6111947,3.956 13.2256195,4.94984211 C14.0435841,4.17429825 14.8089823,3.34549123 15.5608407,2.50780702 C13.7265929,0.952684211 11.369469,-0.000807017544 8.94623894,0.208614035 C4.19176991,0.265912281 0.0310619469,4.71338596 0.211460177,9.52603509 Z" id="Shape" fill="#DC4E41"></path>
                    <path d="M23.9344248,5.51515789 C23.9256637,6.40207018 23.9165044,7.29342105 23.9121239,8.17992982 C23.0324336,8.18880702 22.1575221,8.19324561 21.2822124,8.19768421 C21.2822124,9.08459649 21.2822124,9.96666667 21.2822124,10.8535789 C22.1575221,10.8580175 23.0372124,10.8624561 23.9121239,10.8717368 C23.920885,11.7586491 23.920885,12.6451579 23.929646,13.5365088 C24.8005752,13.5365088 25.675885,13.5320702 26.5507965,13.5365088 C26.5555752,12.6451579 26.5595575,11.7586491 26.5687168,10.8672982 C27.4436283,10.8628596 28.3233186,10.8584211 29.1986283,10.8539825 C29.1986283,9.96707018 29.1986283,9.085 29.1986283,8.19808772 C28.3237168,8.19364912 27.4440265,8.18921053 26.5687168,8.18033333 C26.5639381,7.29342105 26.5555752,6.40207018 26.5507965,5.5155614 C25.675885,5.51515789 24.8049558,5.51515789 23.9344248,5.51515789 Z" id="Shape" fill="#DC4E41"></path>
                    <g id="Shape" fill="#FFFFFF">
                        <path d="M0.211460177,9.52603509 C0.0310619469,4.71338596 4.19137168,0.265912281 8.94584071,0.208210526 C11.3690708,-0.00121052632 13.7265929,0.952280702 15.5604425,2.50740351 C14.8081858,3.34549123 14.0427876,4.17389474 13.2252212,4.9494386 C11.6107965,3.95559649 9.6670354,3.19821053 7.78022124,3.87085965 C4.7369469,4.74889474 2.89393805,8.38975439 4.02013274,11.406386 C4.95278761,14.5569825 8.73477876,16.2860175 11.6988053,14.9625088 C13.2335841,14.4056667 14.2454867,12.9707895 14.6895133,11.4289825 C12.930531,11.3934737 11.1711504,11.4156667 9.41216814,11.3664386 C9.40778761,10.3060175 9.40340708,9.24963158 9.40778761,8.18921053 C12.3411504,8.18477193 15.2788938,8.17589474 18.2166372,8.20252632 C18.3970354,10.8007193 18.0187168,13.5812982 16.3517257,15.6666316 C14.0690708,18.6433158 9.85181416,19.5169123 6.42106195,18.3491579 C2.78004425,17.1374211 0.132212389,13.4207018 0.211460177,9.52603509 Z"></path>
                        <path d="M23.9344248,5.51515789 C24.805354,5.51515789 25.675885,5.51515789 26.5507965,5.51515789 C26.5555752,6.40207018 26.5639381,7.29342105 26.5687168,8.17992982 C27.4436283,8.18880702 28.3233186,8.19324561 29.1986283,8.19768421 C29.1986283,9.08459649 29.1986283,9.96666667 29.1986283,10.8535789 C28.3237168,10.8580175 27.4440265,10.8624561 26.5687168,10.8668947 C26.5599558,11.7582456 26.5555752,12.6447544 26.5507965,13.5361053 C25.675885,13.5316667 24.800177,13.5361053 23.929646,13.5361053 C23.9212832,12.6447544 23.9212832,11.7582456 23.9121239,10.8713333 C23.0372124,10.8620526 22.1575221,10.8580175 21.2822124,10.8531754 C21.2822124,9.96626316 21.2822124,9.08419298 21.2822124,8.1972807 C22.1575221,8.19284211 23.0328319,8.18840351 23.9121239,8.17952632 C23.9165044,7.29342105 23.9252655,6.40207018 23.9344248,5.51515789 Z"></path>
                    </g>
                </g>
            </g>
        </g>
        <g id="google_icon"></g>
    </g>
</svg>