<?xml version="1.0" encoding="UTF-8" standalone="no"?>
<svg width="45px" height="45px" viewBox="0 0 45 45" version="1.1" xmlns="http://www.w3.org/2000/svg" xmlns:xlink="http://www.w3.org/1999/xlink">
    <!-- Generator: Sketch 47 (45396) - http://www.bohemiancoding.com/sketch -->
    <title>twiter_icon</title>
    <desc>Created with Sketch.</desc>
    <defs></defs>
    <g id="Page-1" stroke="none" stroke-width="1" fill="none" fill-rule="evenodd">
        <g id="paper-radio-group" transform="translate(0.000000, -126.000000)" fill-rule="nonzero">
            <g id="002-twitter" transform="translate(0.000000, 126.000000)">
                <circle id="Oval" fill="#55ACEE" cx="22.3403097" cy="22.3399115" r="22.3399115"></circle>
                <path d="M36.024292,16.0550442 C35.0669469,16.4795575 34.0371239,16.7666814 32.9571239,16.8949115 C34.059823,16.2342478 34.9060619,15.1888938 35.3054867,13.9412389 C34.2736726,14.5533186 33.130354,14.9973451 31.9145575,15.2366814 C30.9404867,14.199292 29.5526549,13.5509735 28.015885,13.5509735 C25.0673894,13.5509735 22.6760177,15.9423451 22.6760177,18.8908407 C22.6760177,19.3093805 22.7234071,19.7167699 22.815,20.1078319 C18.3771239,19.8852212 14.4422124,17.759469 11.8083186,14.5278319 C11.3487611,15.3163274 11.0851327,16.2342478 11.0851327,17.2126991 C11.0851327,19.0648673 12.0285398,20.7 13.4605752,21.6573451 C12.5856637,21.6298673 11.7617257,21.3897345 11.0421239,20.9887168 C11.0417257,21.0114159 11.0417257,21.034115 11.0417257,21.0564159 C11.0417257,23.6437168 12.8831416,25.8017257 15.3254867,26.2919469 C14.8778761,26.4146018 14.405177,26.4795133 13.9189381,26.4795133 C13.5740708,26.4795133 13.2399558,26.4464602 12.9142035,26.3843363 C13.5935841,28.5053097 15.5652212,30.0492478 17.9024336,30.0926549 C16.0745575,31.5250885 13.7723894,32.3784956 11.2699115,32.3784956 C10.839823,32.3784956 10.4137168,32.3534071 9.99676991,32.3036283 C12.3586726,33.819292 15.1661947,34.7029646 18.1815929,34.7029646 C28.0035398,34.7029646 33.3748673,26.5663274 33.3748673,19.509292 C33.3748673,19.2779204 33.3696903,19.0473451 33.3593363,18.8187611 C34.4034956,18.0661062 35.3086726,17.125885 36.024292,16.0550442 L36.024292,16.0550442 Z" id="Shape" fill="#F1F2F2"></path>
            </g>
        </g>
        <g id="twiter_icon"></g>
    </g>
</svg>